<?xml version="1.0" encoding="iso-8859-1"?>
<!-- Uploaded to: SVG Repo, www.svgrepo.com, Generator: SVG Repo Mixer Tools -->
<svg fill="#ffffff" version="1.1" id="Layer_1" xmlns="http://www.w3.org/2000/svg" xmlns:xlink="http://www.w3.org/1999/xlink" 
	 viewBox="0 0 512 512" xml:space="preserve">
<g>
	<g>
		<path d="M504.441,172.066l-36.506-36.506c-10.078-10.078-26.428-10.078-36.506,0L230.623,336.358
			c-2.842,2.833-4.975,6.289-6.238,10.095l-18.253,54.758c-0.913,2.748-1.203,5.572-1.178,8.38h-25.515H51.202v25.6h135.091h44.109
			v-0.154c2.807,0.026,5.632-0.256,8.38-1.178l54.758-18.253c3.806-1.271,7.262-3.405,10.095-6.238l200.798-200.798
			C514.519,198.502,514.519,182.153,504.441,172.066z M230.623,409.378l18.253-54.758l36.506,36.506L230.623,409.378z
			 M303.643,372.873l-36.514-36.514l182.554-182.545l36.506,36.506L303.643,372.873z"/>
	</g>
</g>
<g>
	<g>
		<path d="M137.73,51.2c-42.351,0-76.8,34.449-76.8,76.8s34.449,76.8,76.8,76.8c42.351,0,76.8-34.449,76.8-76.8
			S180.081,51.2,137.73,51.2z M137.73,179.2c-28.279,0-51.2-22.921-51.2-51.2s22.921-51.2,51.2-51.2c28.279,0,51.2,22.921,51.2,51.2
			S166.009,179.2,137.73,179.2z"/>
	</g>
</g>
<g>
	<g>
		<path d="M214.12,225.826c-2.219-12.177-12.817-21.026-25.19-21.026h-51.2h-51.2c-12.373,0-22.972,8.849-25.182,21.026
			L51.202,281.6H77.22l9.31-51.2h38.4v51.2h25.6v-51.2h38.4l9.31,51.2h26.018L214.12,225.826z"/>
	</g>
</g>
<g>
	<g>
		<rect x="230.402" y="76.8" width="153.6" height="25.6"/>
	</g>
</g>
<g>
	<g>
		<path d="M51.202,332.8v25.6h142.217l6.682-20.053c0.657-1.954,1.732-3.703,2.611-5.547H51.202z"/>
	</g>
</g>
<g>
	<g>
		<polygon points="230.402,153.6 230.402,179.2 351.583,179.2 377.183,153.6 		"/>
	</g>
</g>
<g>
	<g>
		<path d="M413.331,117.444c6.17-6.17,13.722-10.351,21.871-12.74V0H0.002v512h435.2V314.027l-25.6,25.6V486.4h-384V25.6h384v95.573
			L413.331,117.444z"/>
	</g>
</g>
</svg>